<svg width="32" height="32" viewBox="0 0 32 32" fill="none" xmlns="http://www.w3.org/2000/svg">                         
<g clip-path="url(#clip0_1196_197066)">                             
    <path d="M28.4443 25.7778H3.55539C3.31964 25.7778 3.09355 25.6841 2.92685 25.5174C2.76015 25.3507 2.6665 25.1246 2.6665 24.8889C2.6665 24.6531 2.76015 24.427 2.92685 24.2603C3.09355 24.0936 3.31964 24 3.55539 24H28.4443C28.68 24 28.9061 24.0936 29.0728 24.2603C29.2395 24.427 29.3332 24.6531 29.3332 24.8889C29.3332 25.1246 29.2395 25.3507 29.0728 25.5174C28.9061 25.6841 28.68 25.7778 28.4443 25.7778Z" fill="#425570">
    </path>                             
    <path d="M28.4443 16.8889H3.55539C3.31964 16.8889 3.09355 16.7952 2.92685 16.6285C2.76015 16.4618 2.6665 16.2358 2.6665 16C2.6665 15.7643 2.76015 15.5382 2.92685 15.3715C3.09355 15.2048 3.31964 15.1111 3.55539 15.1111H28.4443C28.68 15.1111 28.9061 15.2048 29.0728 15.3715C29.2395 15.5382 29.3332 15.7643 29.3332 16C29.3332 16.2358 29.2395 16.4618 29.0728 16.6285C28.9061 16.7952 28.68 16.8889 28.4443 16.8889Z" fill="#425570">
    </path>                            
    <path d="M28.4443 8.00001H3.55539C3.31964 8.00001 3.09355 7.90636 2.92685 7.73966C2.76015 7.57296 2.6665 7.34687 2.6665 7.11112C2.6665 6.87537 2.76015 6.64928 2.92685 6.48258C3.09355 6.31588 3.31964 6.22223 3.55539 6.22223H28.4443C28.68 6.22223 28.9061 6.31588 29.0728 6.48258C29.2395 6.64928 29.3332 6.87537 29.3332 7.11112C29.3332 7.34687 29.2395 7.57296 29.0728 7.73966C28.9061 7.90636 28.68 8.00001 28.4443 8.00001Z" fill="#425570">
    </path>                        
</g>                         
<defs>                            
    <clipPath id="clip0_1196_197066">                                 
        <rect width="32" height="32" fill="white"></rect>                             
    </clipPath>                         
</defs>                    
 </svg>