<svg className="icon-footer" width="21" height="20" viewBox="0 0 21 20" fill="none" xmlns="http://www.w3.org/2000/svg"> <path d="M10.3552 1.66675C7.16683 1.66675 3.8335 4.13052 3.8335 8.18849C3.8335 12.0291 9.6306 17.8986 9.84799 18.116C9.99292 18.261 10.1378 18.3334 10.3552 18.3334C10.5726 18.3334 10.7176 18.261 10.8625 18.116C11.0799 17.8986 16.877 12.0291 16.877 8.18849C16.877 4.13052 13.5436 1.66675 10.3552 1.66675ZM10.3552 10.3624C9.12335 10.3624 8.18132 9.42037 8.18132 8.18849C8.18132 6.9566 9.12335 6.01457 10.3552 6.01457C11.5871 6.01457 12.5291 6.9566 12.5291 8.18849C12.5291 9.42037 11.5871 10.3624 10.3552 10.3624Z" fill="#131313"></path> </svg>