<svg width="20" height="20" viewBox="0 0 20 20" fill="none" xmlns="http://www.w3.org/2000/svg"> <path d="M16.3888 13.9415L12.5069 12.2749C12.3795 12.2203 12.2387 12.205 12.1025 12.2311C11.9664 12.2573 11.8412 12.3235 11.743 12.4214L10.1222 14.0186C9.27583 13.5096 8.48942 12.907 7.77783 12.2221C7.09382 11.5111 6.49105 10.7262 5.98065 9.88185L7.57784 8.26383C7.67536 8.16544 7.74123 8.04013 7.76697 7.904C7.79271 7.76788 7.77715 7.62717 7.72228 7.49996L6.05565 3.61809C5.99011 3.46563 5.87214 3.34167 5.72309 3.26868C5.57405 3.19569 5.4038 3.17848 5.24317 3.22019L2.18767 4.02781C2.03489 4.06717 1.90006 4.1574 1.80539 4.28362C1.71072 4.40984 1.66186 4.56454 1.66685 4.72224C1.86135 8.27337 3.33818 11.6332 5.82301 14.1776C8.36811 16.6634 11.7295 18.1401 15.2818 18.3331C15.4395 18.3381 15.5941 18.2893 15.7203 18.1948C15.8465 18.1003 15.9368 17.9656 15.9763 17.8129L16.7832 14.7574C16.8261 14.5967 16.8098 14.426 16.7374 14.2763C16.6651 14.1265 16.5413 14.0077 16.3888 13.9415Z" fill="#131313"></path> <path d="M14.1666 8.61105C14.1666 8.79522 14.2397 8.97185 14.37 9.10208C14.5002 9.23232 14.6768 9.30548 14.861 9.30548C15.0452 9.30548 15.2218 9.23232 15.352 9.10208C15.4823 8.97185 15.5554 8.79522 15.5554 8.61105C15.5543 7.50634 15.115 6.4472 14.3339 5.66605C13.5527 4.8849 12.4936 4.44557 11.3889 4.44447C11.2047 4.44447 11.0281 4.51763 10.8978 4.64786C10.7676 4.77809 10.6944 4.95472 10.6944 5.1389C10.6944 5.32307 10.7676 5.4997 10.8978 5.62993C11.0281 5.76017 11.2047 5.83333 11.3889 5.83333C12.1256 5.83333 12.8321 6.12598 13.353 6.6469C13.8739 7.16783 14.1666 7.87435 14.1666 8.61105Z" fill="#131313"></path> <path d="M11.3889 1.66675C11.2047 1.66675 11.0281 1.73991 10.8978 1.87014C10.7676 2.00037 10.6944 2.177 10.6944 2.36118C10.6944 2.54535 10.7676 2.72198 10.8978 2.85221C11.0281 2.98245 11.2047 3.05561 11.3889 3.05561C12.8617 3.05726 14.2738 3.6431 15.3153 4.68459C16.3568 5.72607 16.9426 7.13816 16.9443 8.61105C16.9443 8.79522 17.0175 8.97185 17.1477 9.10208C17.2779 9.23232 17.4546 9.30548 17.6387 9.30548C17.8229 9.30548 17.9995 9.23232 18.1298 9.10208C18.26 8.97185 18.3332 8.79522 18.3332 8.61105C18.3311 6.76993 17.5989 5.00479 16.297 3.70292C14.9951 2.40105 13.23 1.66877 11.3889 1.66675Z" fill="#131313"></path> </svg>