<svg width="30" height="30" viewBox="0 0 30 30" fill="none" xmlns="http://www.w3.org/2000/svg">                            
<path d="M0 1C0 0.734784 0.105357 0.48043 0.292893 0.292893C0.48043 0.105357 0.734784 0 1 0H4C4.22306 6.1623e-05 4.4397 0.0747014 4.61546 0.212049C4.79122 0.349398 4.91602 0.541568 4.97 0.758L5.78 4H29C29.1468 4.00014 29.2918 4.03261 29.4247 4.0951C29.5576 4.1576 29.6751 4.24859 29.7688 4.36161C29.8625 4.47463 29.9302 4.6069 29.9671 4.74904C30.0039 4.89117 30.009 5.03967 29.982 5.184L26.982 21.184C26.9391 21.4132 26.8175 21.6201 26.6382 21.7691C26.4589 21.9181 26.2331 21.9998 26 22H8C7.76687 21.9998 7.54113 21.9181 7.36182 21.7691C7.18251 21.6201 7.0609 21.4132 7.018 21.184L4.02 5.214L3.22 2H1C0.734784 2 0.48043 1.89464 0.292893 1.70711C0.105357 1.51957 0 1.26522 0 1ZM6.204 6L8.83 20H25.17L27.796 6H6.204ZM10 22C8.93913 22 7.92172 22.4214 7.17157 23.1716C6.42143 23.9217 6 24.9391 6 26C6 27.0609 6.42143 28.0783 7.17157 28.8284C7.92172 29.5786 8.93913 30 10 30C11.0609 30 12.0783 29.5786 12.8284 28.8284C13.5786 28.0783 14 27.0609 14 26C14 24.9391 13.5786 23.9217 12.8284 23.1716C12.0783 22.4214 11.0609 22 10 22ZM24 22C22.9391 22 21.9217 22.4214 21.1716 23.1716C20.4214 23.9217 20 24.9391 20 26C20 27.0609 20.4214 28.0783 21.1716 28.8284C21.9217 29.5786 22.9391 30 24 30C25.0609 30 26.0783 29.5786 26.8284 28.8284C27.5786 28.0783 28 27.0609 28 26C28 24.9391 27.5786 23.9217 26.8284 23.1716C26.0783 22.4214 25.0609 22 24 22ZM10 24C10.5304 24 11.0391 24.2107 11.4142 24.5858C11.7893 24.9609 12 25.4696 12 26C12 26.5304 11.7893 27.0391 11.4142 27.4142C11.0391 27.7893 10.5304 28 10 28C9.46957 28 8.96086 27.7893 8.58579 27.4142C8.21072 27.0391 8 26.5304 8 26C8 25.4696 8.21072 24.9609 8.58579 24.5858C8.96086 24.2107 9.46957 24 10 24ZM24 24C24.5304 24 25.0391 24.2107 25.4142 24.5858C25.7893 24.9609 26 25.4696 26 26C26 26.5304 25.7893 27.0391 25.4142 27.4142C25.0391 27.7893 24.5304 28 24 28C23.4696 28 22.9609 27.7893 22.5858 27.4142C22.2107 27.0391 22 26.5304 22 26C22 25.4696 22.2107 24.9609 22.5858 24.5858C22.9609 24.2107 23.4696 24 24 24Z" fill="#425570"></path>                        
</svg>